<svg xmlns="http://www.w3.org/2000/svg" width="100" height="100" viewBox="0 0 400 400">
  <defs>
    <style>
      .cls-1 {
        fill-rule: evenodd;
      }
    </style>
  </defs>
  <path id="Color_Fill_1" data-name="Color Fill 1" class="cls-1" d="M278,299H122c1.14,3.594-.792,12.51-3,16l-2,1v2l-2,1-4,5h-2v1l-6,2v1H99v1c-10.023,2.966-24.97-6.695-28-11-5.192-7.375-5-15.3-5-28V275l-4-3v-2H61l-2-6H58v-4H57V205l3-9,2-1v-2l3-2v-2l2-1,1-9h1l1-4,2-1,4-5,2-1,1-6h1v-3h1v-3h1v-3h1v-3h1l3-13h1l1-6h1v-3h1v-3h1v-3h1v-3h1v-3h1v-3h1l1-6h1l2-10h1V94h1q1-3,2-6h1V86l3-2V82l5-4,1-2h2l2-3h2V72l4-1V70l6-1V68h4V67h99c22.156,0,38.9-1.265,52,8l3,4,5,4v2l2,1q0.5,2,1,4h1q0.5,2,1,4h1v3h1v3h1v3h1v3c4.958,12.551,9.023,27.408,14,40v3h1v3h1v3h1v3h1v3h1q0.5,3,1,6h1c0.574-2.01-.12-0.865,1-2-0.075,2.393-.671,2.488-1,4l7,6v2h1v2h1v3h1v6l4,3c2.5,3.562,4.588,9.58,6,14v16c0,11.321,2.016,34.275-1,43h-1l-1,5-2,1v2l-3,2v10c0,9.011,1.828,21.682-1,29h-1v2h-1l-2,6-3,2-5,6h-2c-3.716,2.08-11.474,6.353-19,4v-1h-4v-1h-2v-1l-4-1-1-2h-2l-1-2c-2.1-2.026-4.565-4.388-6-7v-2h-1v-2h-1v-3h-1V299Zm18-138,1-3h1v-2h1v-2h1v-5c0.07-.295,1.285-0.3,1-2h-1v-5h-1v-3h-1v-2h-1q-1-4.5-2-9h-1v-2h-1q-1-4.5-2-9h-1v-2h-1q-1-4.5-2-9h-1v-2h-1v-3h-1q-0.5-2-1-4l-2-1V94l-6-5-2-3-6-2V83h-2V82c-6.145-2.648-16.4-2-25-2H144v1l-9,1v1l-6,2-1,2h-2l-4,5-2,1v2l-2,1q-1,3-2,6h-1v2h-1q-1,4.5-2,9h-1v2h-1q-1,4.5-2,9h-1v2h-1q-0.5,3-1,6h-1v3h-1v2h-1c-2.022,4.709-2.01,10.308-2,17,1.8,1.545,2.349,4.308,4,6l7,5H289C291.269,164.176,292.836,161.813,296,161ZM123,218v13H261c5.381,0,12.15.4,16-1-1.079-2.874-1.044-7.691-1-12H123Zm-32,1v1H87v1c-3.583.83-7.565,4.883-8,9-3.513,3.577-.589,9.2,0,14l8,7,10,1c2.215-.7,4.223-2.375,7-3,3.892-6.771,6.02-6.454,6-18h-1v-3l-2-1c-1.882-2.8-1.189-4-5-5C99.8,219.43,95.848,218.961,91,219Zm212,0v1l-6,1v1l-5,4c-1.155,1.672-.009,2.274-2,4-0.3,9.965.943,15.573,7,19,1.9,1.99.628-.023,3,1v1c2.875,1.159,9.155,1.255,12,0v-1h2v-1h2v-1l4-3c1.152-1.682.05-2.25,2-4V230c-1.961-1.738-.85-2.341-2-4l-2-1C314.266,221.107,310.786,219.03,303,219ZM123,240v13H261c5.381,0,12.15.4,16-1-1.079-2.874-1.044-7.691-1-12H123Z"/>
</svg>
