<svg width="240" height="64" viewBox="0 0 240 64" xmlns="http://www.w3.org/2000/svg">
 <g id="img">
  <rect id="rect3778" height="64" width="240" y="0" x="0" fill="none"/>
  <g id="g4194">
   <g id="g4145" fill="currentColor">
    <circle id="path2993" stroke-width="1.3262" transform="rotate(-30)" cy="43.713" cx="9.4364" r="2.2765"/>
    <path id="path3004" stroke-width="1.0095" d="m37.012 24.177-2.8428 3.6128c0.66345 0.52205 1.3255 1.1576 1.7734 1.9333 0.4479 0.77578 0.66726 1.6669 0.78764 2.5025l4.5502-0.65558c-0.193-1.42-0.633-2.804-1.394-4.123s-1.74-2.391-2.874-3.27z"/>
    <path id="path3014" stroke-width="1.0095" d="m42.504 16.9-2.8428 3.6128c1.607 1.2355 3.0914 2.7935 4.1679 4.6581s1.6835 3.9291 1.95 5.9386l4.5502-0.65558c-0.33967-2.5954-1.1669-5.1513-2.5573-7.5594-1.3903-2.4081-3.1901-4.4025-5.268-5.9944z"/>
    <path id="path3036" stroke-width="3.6204" d="m28.667 44.439a9.1058 9.1058 0 0 1 -9.1058 0.000023 9.1058 9.1058 0 0 1 -4.5529 -7.8859 9.1058 9.1058 0 0 1 4.5529 -7.8859l4.5529 7.8859z"/>
    <path id="path3038-8" stroke-width="1.0095" d="m17.502 6.8895c-13.868 8.0065-18.619 25.74-10.612 39.608 8.006 13.868 25.739 18.619 39.608 10.613 13.868-8.007 18.619-25.74 10.613-39.609-8.007-13.868-25.74-18.62-39.609-10.612zm1.706 2.9541c12.237-7.0648 27.884-2.8722 34.948 9.3644 7.065 12.237 2.873 27.884-9.364 34.948-12.237 7.065-27.884 2.873-34.948-9.364-7.0652-12.237-2.8726-27.884 9.364-34.948z"/>
   </g>
  </g>
  <g id="logotext" aria-label="FLEET" fill="#FCFCFC">
   <path id = "path4172" 
			d="
		M243.019180,260.045288 
			C253.999191,260.045288 264.483185,260.045288 275.296417,260.045288 
			C275.296417,266.352142 275.296417,272.403137 275.296417,278.848083 
			C260.563202,278.848083 246.132217,278.848083 231.434799,278.848083 
			C231.434799,284.989563 231.434799,290.743469 231.434799,297.040649 
			C247.984360,297.040649 264.536072,297.040649 281.474335,297.040649 
			C281.474335,303.455322 281.474335,309.350952 281.474335,315.631775 
			C257.127899,315.631775 232.576004,315.631775 207.736694,315.631775 
			C207.736694,285.009033 207.736694,254.271927 207.736694,223.282822 
			C231.828690,223.282822 255.750534,223.282822 279.977783,223.282822 
			C279.977783,229.328201 279.977783,235.394775 279.977783,241.755615 
			C263.830170,241.755615 247.872696,241.755615 231.539703,241.755615 
			C231.539703,247.758392 231.539703,253.492874 231.539703,260.045288 
			C235.047012,260.045288 238.785095,260.045288 243.019180,260.045288 
		z"/>
		<path id = "path4174"  
			d="
		M354.979431,278.839020 
			C344.166351,278.839020 333.849060,278.839020 323.172852,278.839020 
			C323.172852,284.902863 323.172852,290.786133 323.172852,297.252014 
			C339.688049,297.252014 356.237366,297.252014 372.997437,297.252014 
			C372.997437,303.741089 372.997437,309.655212 372.997437,315.788361 
			C348.378967,315.788361 323.961243,315.788361 299.277466,315.788361 
			C299.277466,284.966309 299.277466,254.244919 299.277466,223.279282 
			C323.331696,223.279282 347.258148,223.279282 371.541138,223.279282 
			C371.541138,229.156326 371.541138,235.072830 371.541138,241.503845 
			C355.649506,241.503845 339.585724,241.503845 323.169586,241.503845 
			C323.169586,247.868881 323.169586,253.735168 323.169586,260.007843 
			C337.657104,260.007843 352.074554,260.007843 366.746368,260.007843 
			C366.746368,266.328461 366.746368,272.254486 366.746368,278.839020 
			C363.005280,278.839020 359.240265,278.839020 354.979431,278.839020 
		z"/>
		<path id = "path4176"  
			d="
		M49.012287,309.901733 
			C49.012287,280.800201 49.012287,252.185959 49.012287,223.304535 
			C72.070045,223.304535 94.784180,223.304535 117.739517,223.304535 
			C117.739517,229.359558 117.739517,235.277985 117.739517,241.645233 
			C102.922035,241.645233 88.182343,241.645233 73.129578,241.645233 
			C73.129578,248.833755 73.129578,255.590912 73.129578,262.822479 
			C86.494629,262.822479 100.069107,262.822479 113.997360,262.822479 
			C113.997360,269.336426 113.997360,275.386078 113.997360,281.735565 
			C100.454697,281.735565 87.013840,281.735565 73.109711,281.735565 
			C73.109711,293.073975 73.109711,304.135468 73.109711,315.600037 
			C64.959946,315.600037 57.259544,315.600037 49.012287,315.600037 
			C49.012287,313.932617 49.012287,312.160828 49.012287,309.901733 
		z"/>
		<path id = "path4178" 
			d="
		M433.683960,300.993347 
			C433.683960,306.127258 433.683960,310.762573 433.683960,315.697357 
			C425.757263,315.697357 418.182800,315.697357 410.133362,315.697357 
			C410.133362,291.450439 410.133362,267.075043 410.133362,242.161636 
			C400.631531,242.161636 391.579437,242.161636 382.309998,242.161636 
			C382.309998,235.554794 382.309998,229.488739 382.309998,223.187714 
			C408.734711,223.187714 434.955566,223.187714 461.430298,223.187714 
			C461.430298,229.460526 461.430298,235.531540 461.430298,241.964813 
			C452.265625,241.964813 443.332733,241.964813 433.683960,241.964813 
			C433.683960,261.710541 433.683960,281.102631 433.683960,300.993347 
		z"/>
		<path id = "path4180"  
			d="
		M154.973129,282.991455 
			C154.973129,287.468933 154.973129,291.447754 154.973129,295.903442 
			C168.048004,295.903442 180.937531,295.903442 194.087860,295.903442 
			C194.087860,302.808350 194.087860,309.236359 194.087860,315.816467 
			C173.188278,315.816467 152.445694,315.816467 131.432861,315.816467 
			C131.432861,284.940308 131.432861,254.253021 131.432861,223.300934 
			C139.179642,223.300934 146.757462,223.300934 154.973129,223.300934 
			C154.973129,243.026871 154.973129,262.759827 154.973129,282.991455 
		z"/>d="m233.08 22.969q1.6812 0 3.0169 0.27636l-0.52968 3.5466q-1.566-0.34544-2.7636-0.34544-3.0629 0-5.2508 2.4872-2.1648 2.4872-2.1648 6.195v13.541h-3.8229v-25.241h3.1551l0.43757 4.675h0.18423q1.4048-2.4642 3.3854-3.7999t4.3526-1.3357z"/>
  </g>
 </g>
</svg>
